<?xml version="1.0" standalone="no"?>
<!DOCTYPE svg PUBLIC "-//W3C//DTD SVG 20010904//EN"
 "http://www.w3.org/TR/2001/REC-SVG-20010904/DTD/svg10.dtd">
<svg version="1.0" xmlns="http://www.w3.org/2000/svg"
 width="600.000000pt" height="600.000000pt" viewBox="0 0 600.000000 600.000000"
 preserveAspectRatio="xMidYMid meet">

<g transform="translate(0.000000,600.000000) scale(0.100000,-0.100000)"
fill="#000000" stroke="none">
<path d="M2915 5194 c-66 -41 -127 -78 -135 -84 -8 -5 -42 -25 -75 -44 -33
-19 -95 -57 -138 -85 -43 -28 -79 -51 -81 -51 -4 0 -400 -224 -426 -240 -8 -5
-40 -23 -70 -40 -30 -16 -75 -42 -100 -56 -25 -14 -110 -63 -190 -108 -80 -44
-154 -86 -165 -93 -11 -7 -31 -18 -45 -25 -14 -7 -48 -27 -77 -45 -29 -18 -54
-33 -57 -33 -3 0 -96 -52 -207 -115 -111 -63 -203 -115 -206 -115 -3 0 -17 -8
-31 -18 -15 -11 -58 -36 -97 -57 -38 -21 -178 -100 -310 -175 -132 -76 -258
-147 -280 -159 -95 -50 -160 -90 -163 -100 -2 -6 5 -14 15 -17 18 -7 109 -41
198 -75 28 -10 104 -39 170 -64 66 -25 129 -50 140 -55 52 -23 64 -21 133 19
38 22 74 41 81 43 16 4 20 -8 136 -367 54 -165 105 -322 115 -350 10 -27 62
-185 115 -350 53 -165 103 -316 110 -335 8 -19 50 -150 95 -290 45 -140 86
-266 92 -280 5 -14 25 -72 43 -130 49 -155 61 -179 96 -194 23 -10 117 -13
358 -15 179 0 475 -3 656 -6 182 -3 628 -10 993 -16 640 -10 664 -10 695 8 37
22 45 41 119 278 27 88 67 214 88 280 21 66 66 208 100 315 34 107 76 242 95
300 43 134 152 481 170 540 8 25 30 95 49 155 86 269 129 404 145 463 10 35
21 65 24 69 6 5 69 -32 229 -135 73 -48 85 -52 103 -41 23 15 198 107 333 176
91 47 119 71 109 97 -3 7 -45 36 -93 65 -49 29 -136 81 -194 116 -58 35 -143
87 -190 115 -47 28 -92 55 -100 60 -20 13 -165 101 -320 194 -69 41 -195 118
-280 170 -85 52 -166 101 -180 109 -14 8 -153 92 -310 187 -157 95 -339 206
-405 245 -293 176 -691 418 -699 426 -22 20 -67 3 -181 -67z m272 -513 c43
-28 120 -76 171 -108 52 -32 104 -65 117 -73 13 -8 65 -41 117 -73 51 -32 246
-154 433 -272 187 -118 378 -237 425 -266 76 -46 149 -93 260 -164 19 -12 78
-49 130 -81 52 -32 97 -59 99 -61 4 -3 -33 -129 -84 -288 -40 -125 -142 -446
-200 -630 -31 -99 -64 -205 -74 -235 -11 -30 -38 -116 -61 -190 -23 -74 -66
-211 -95 -305 -30 -93 -82 -258 -116 -365 -34 -107 -72 -226 -84 -265 l-23
-70 -88 2 c-49 1 -308 5 -576 8 l-488 7 0 127 c0 69 7 311 15 536 8 226 15
427 15 448 l0 37 218 0 c119 0 256 5 304 10 212 24 450 158 543 305 63 99 125
339 125 485 0 211 -86 425 -230 571 -199 201 -651 285 -1390 259 -162 -6 -314
-13 -337 -16 l-43 -5 -2 -67 c-1 -37 -2 -112 -4 -167 -1 -55 -9 -199 -18 -320
-8 -121 -22 -330 -31 -465 -8 -135 -22 -324 -30 -420 -8 -96 -15 -209 -15
-250 l0 -74 27 41 c33 52 105 93 162 93 60 0 107 -44 116 -109 8 -61 -7 -116
-41 -153 -58 -60 -158 -24 -139 49 14 58 45 69 69 26 l15 -28 1 31 c0 18 -9
42 -19 55 -19 23 -21 23 -48 9 -93 -50 -90 -263 7 -406 17 -26 36 -57 41 -68
6 -12 16 -32 24 -46 8 -14 15 -35 15 -48 0 -15 5 -22 13 -20 8 3 13 30 14 79
1 69 11 111 58 239 9 25 43 95 76 156 32 62 59 118 59 125 0 7 -28 42 -63 78
-82 85 -173 263 -182 356 -6 65 5 97 28 80 95 -69 130 -83 149 -59 69 85 137
126 227 133 l66 6 18 58 c25 78 43 76 103 -15 97 -145 121 -265 95 -477 -6
-53 -16 -240 -21 -416 -15 -461 -30 -738 -43 -753 -8 -11 -82 -12 -381 -6
-204 3 -374 9 -378 13 -4 4 -1 42 7 85 33 174 16 337 -51 481 -15 33 -31 78
-36 100 -4 22 -4 -48 -1 -155 5 -182 5 -511 -2 -518 -1 -1 -105 1 -231 5
l-229 8 -36 110 c-36 107 -140 424 -389 1185 -68 206 -163 496 -211 644 -49
148 -89 274 -89 280 0 6 161 103 357 216 197 113 675 388 1063 612 388 224
708 407 712 408 3 0 42 -22 85 -49z m-210 -820 c164 -12 311 -40 374 -72 76
-39 176 -139 264 -265 22 -32 62 -79 89 -106 53 -52 180 -125 236 -134 19 -3
50 -10 68 -16 35 -11 36 -20 5 -80 -19 -38 -31 -35 -53 15 -10 23 -19 37 -19
30 -1 -19 19 -67 32 -75 9 -5 7 -17 -7 -43 -24 -43 -84 -115 -97 -115 -5 0
-24 -10 -40 -22 -27 -21 -41 -23 -127 -21 -160 2 -309 44 -516 143 -129 62
-174 77 -291 95 -129 21 -206 18 -318 -10 -130 -33 -219 -72 -272 -117 -24
-21 -45 -38 -47 -38 -5 0 1 122 17 325 8 99 18 242 21 317 9 171 7 168 142
179 53 5 129 13 167 18 72 10 128 9 372 -8z"/>
<path d="M2887 2756 c-9 -13 -33 -28 -54 -34 l-38 -10 33 -1 c33 -1 82 34 82
59 0 16 -6 12 -23 -14z"/>
<path d="M2630 2636 c-7 -14 -26 -30 -42 -37 -16 -6 -27 -14 -24 -16 10 -10
75 27 81 47 10 31 1 34 -15 6z"/>
<path d="M2779 2582 c-21 -18 -22 -52 -2 -52 21 1 56 39 50 54 -8 21 -20 20
-48 -2z"/>
<path d="M3188 3671 c-24 -27 -59 -77 -78 -112 -32 -59 -35 -71 -35 -154 0
-77 4 -96 24 -133 42 -72 114 -102 182 -76 48 20 74 70 88 169 11 76 34 149
54 173 6 8 25 21 42 28 27 12 28 13 7 14 -13 0 -36 -13 -52 -28 -31 -31 -45
-73 -60 -175 -18 -124 -50 -167 -123 -167 -51 0 -90 22 -118 67 -21 34 -24 50
-24 138 l1 100 43 70 c24 39 46 72 50 75 15 13 54 60 49 60 -4 0 -26 -22 -50
-49z"/>
<path d="M3543 3338 c20 -7 35 -7 50 0 18 9 14 11 -28 11 -46 -1 -48 -1 -22
-11z"/>
</g>
</svg>
